<?xml version="1.0" standalone="no"?>
<!DOCTYPE svg PUBLIC "-//W3C//DTD SVG 20010904//EN"
 "http://www.w3.org/TR/2001/REC-SVG-20010904/DTD/svg10.dtd">
<svg version="1.0" xmlns="http://www.w3.org/2000/svg"
 width="377.000000pt" height="377.000000pt" viewBox="0 0 377.000000 377.000000"
 preserveAspectRatio="xMidYMid meet">
<metadata>
Created by potrace 1.11, written by Peter Selinger 2001-2013
</metadata>
<g transform="translate(0.000000,377.000000) scale(0.100000,-0.100000)"
fill="#000000" stroke="none">
<path d="M1026 3749 c-110 -38 -212 -141 -241 -244 l-16 -52 -49 -2 c-174 -3
-332 -142 -370 -326 -19 -92 -11 -167 46 -435 20 -91 37 -172 39 -180 2 -8 6
-26 9 -40 3 -14 8 -41 11 -60 2 -19 7 -46 10 -60 3 -14 8 -47 11 -75 4 -27 8
-53 11 -57 5 -9 4 -188 -2 -258 -4 -59 -14 -166 -20 -210 -2 -19 -9 -71 -15
-115 -11 -89 -15 -123 -25 -210 -4 -33 -9 -71 -11 -85 -6 -39 -17 -247 -17
-330 -1 -251 64 -516 165 -677 85 -135 243 -238 439 -288 129 -32 203 -39 404
-39 181 -1 258 6 395 31 47 8 96 17 110 19 156 27 311 129 446 296 32 40 68
84 79 97 53 65 178 201 228 248 50 47 275 203 293 203 4 0 15 6 23 14 9 7 36
24 61 38 25 13 63 35 85 49 22 13 62 36 89 49 121 62 188 156 194 276 7 117
-34 202 -143 302 -143 131 -367 172 -628 115 -60 -12 -117 -27 -127 -33 -10
-5 -22 -10 -26 -10 -6 0 -1 68 11 133 3 15 7 37 9 50 2 12 43 182 90 377 89
369 121 513 142 630 4 19 8 44 10 55 26 135 34 242 23 302 -21 110 -108 221
-212 268 -58 27 -88 33 -163 34 -44 1 -52 4 -62 26 -32 70 -152 161 -237 179
-144 30 -277 -7 -372 -105 -66 -69 -85 -107 -129 -274 -21 -80 -42 -145 -47
-145 -4 0 -7 6 -6 13 5 31 -66 259 -102 328 -87 162 -254 235 -413 178z"/>
</g>
</svg>
