<?xml version="1.0" encoding="utf-8"?>
<!-- Generator: Adobe Illustrator 18.1.0, SVG Export Plug-In . SVG Version: 6.00 Build 0)  -->
<svg version="1.1" xmlns="http://www.w3.org/2000/svg" xmlns:xlink="http://www.w3.org/1999/xlink" x="0px" y="0px" width="600.1px"
	 height="147.6px" viewBox="0 0 600.1 147.6" enable-background="new 0 0 600.1 147.6" xml:space="preserve">
<g id="Layer_2" display="none">
	
		<line display="inline" fill="none" stroke="#00AEEF" stroke-width="0.5" stroke-miterlimit="10" x1="-72.5" y1="54.2" x2="719.5" y2="54.2"/>
	<line display="inline" fill="none" stroke="#00AEEF" stroke-miterlimit="10" x1="-72.5" y1="139.3" x2="719.5" y2="139.3"/>
	<line display="inline" fill="none" stroke="#00AEEF" stroke-miterlimit="10" x1="-72.5" y1="35.2" x2="719.5" y2="35.2"/>
	<line display="inline" fill="none" stroke="#00AEEF" stroke-miterlimit="10" x1="-72.5" y1="107.4" x2="719.5" y2="107.4"/>
	<line display="inline" fill="none" stroke="#00AEEF" stroke-miterlimit="10" x1="-72.5" y1="96.8" x2="719.5" y2="96.8"/>
	
		<rect x="0" y="0" display="inline" fill="none" stroke="#EC008C" stroke-width="0.5" stroke-miterlimit="10" stroke-dasharray="2,2" width="595" height="139.3"/>
	<rect x="0" y="107.4" display="inline" opacity="2.000000e-02" fill="#EC008C" width="595" height="31.9"/>
	<rect x="0" y="96.8" display="inline" opacity="0.1" fill="#00AEEF" width="595" height="10.5"/>
	<line display="inline" fill="none" stroke="#00AEEF" stroke-miterlimit="10" x1="595" y1="96.8" x2="595" y2="107.4"/>
	
		<text transform="matrix(1 0 0 1 599.3629 104.3832)" display="inline" fill="#00AEEF" font-family="'Consolas-Bold'" font-size="8">x</text>
	<line display="inline" fill="none" stroke="#EC008C" stroke-miterlimit="10" x1="595" y1="107.4" x2="595" y2="139.3"/>
	<line display="inline" fill="none" stroke="#EC008C" stroke-miterlimit="10" x1="595" y1="54.2" x2="595" y2="96.8"/>
	
		<text transform="matrix(1 0 0 1 599.3629 124.8997)" display="inline" fill="#EC008C" font-family="'Consolas-Bold'" font-size="8">75% y</text>
	<text transform="matrix(1 0 0 1 599.3629 77.8997)" display="inline" fill="#EC008C" font-family="'Consolas-Bold'" font-size="8">y</text>
	
		<line display="inline" fill="none" stroke="#00AEEF" stroke-width="0.5" stroke-miterlimit="10" stroke-dasharray="2,2" x1="108.5" y1="0" x2="108.5" y2="139.3"/>
</g>
<g id="Layer_1">
	<g>
		<path fill="#BCBBBB" d="M119.7,128.8c0,3.8,2,6.1,5.6,6.1c2.5,0,3.8-0.7,5.3-2.2l2.8,2.6c-2.2,2.2-4.4,3.4-8.2,3.4
			c-5.5,0-9.8-2.9-9.8-11.2c0-7.1,3.7-11.2,9.3-11.2c5.9,0,9.3,4.3,9.3,10.5v1.9H119.7z M128.9,122.8c-0.7-1.6-2.2-2.8-4.3-2.8
			c-2.1,0-3.7,1.1-4.4,2.8c-0.4,1-0.5,1.6-0.6,3h9.8C129.5,124.4,129.4,123.8,128.9,122.8z"/>
		<path fill="#BCBBBB" d="M163.8,138.5v-13.3c0-3.4-1.9-4.9-4.4-4.9c-2.4,0-4.5,1.5-4.5,4.7v13.5h-4.4v-13.3c0-3.4-1.9-4.9-4.4-4.9
			s-4.5,1.5-4.5,4.9v13.3h-4.4v-21.9h4.3v2.2c1.5-1.6,3.6-2.5,5.8-2.5c2.7,0,4.8,1.1,6.2,3.2c1.8-2.2,4-3.2,6.9-3.2
			c2.2,0,4.2,0.7,5.5,2c1.7,1.6,2.3,3.7,2.3,6.2v14H163.8z"/>
		<path fill="#BCBBBB" d="M192.1,126.4h-7v12.1h-4.7v-30.7h11.6c6,0,9.8,4,9.8,9.3C202,122.4,198.1,126.4,192.1,126.4z M191.9,112
			h-6.7v10.2h6.7c3.2,0,5.4-1.9,5.4-5.1C197.3,113.9,195.1,112,191.9,112z"/>
		<path fill="#BCBBBB" d="M218.3,136.2c-1.4,1.5-3.6,2.6-6.6,2.6s-5.1-1.1-6.5-2.6c-2.1-2.2-2.6-4.9-2.6-8.6c0-3.7,0.5-6.4,2.6-8.6
			c1.4-1.5,3.5-2.6,6.5-2.6s5.1,1.1,6.6,2.6c2.1,2.2,2.6,4.9,2.6,8.6C220.9,131.2,220.4,134,218.3,136.2z M215,121.5
			c-0.8-0.8-1.9-1.3-3.2-1.3c-1.3,0-2.4,0.4-3.2,1.3c-1.3,1.3-1.5,3.6-1.5,6c0,2.4,0.2,4.7,1.5,6c0.8,0.8,1.9,1.3,3.2,1.3
			c1.3,0,2.4-0.5,3.2-1.3c1.3-1.3,1.5-3.6,1.5-6C216.5,125.2,216.3,122.9,215,121.5z"/>
		<path fill="#BCBBBB" d="M236.5,121.7c-1-1-1.8-1.5-3.3-1.5c-2.4,0-4.4,1.9-4.4,4.9v13.3h-4.4v-21.9h4.3v2.4
			c1.1-1.6,3.4-2.6,5.8-2.6c2.1,0,3.7,0.6,5.2,2.1L236.5,121.7z"/>
		<path fill="#BCBBBB" d="M248.5,138.5c-4.1,0-6-2.9-6-6.1v-12V117v-6.6h4.4v6.3h5.1l-2.7,3.4H247v12.2c0,1.6,0.8,2.5,2.4,2.5h1.8
			v3.8H248.5z"/>
		<path fill="#BCBBBB" d="M268.3,138.5v-2.2c-1.5,1.6-3.6,2.5-5.8,2.5c-2.2,0-4.1-0.7-5.4-2c-1.7-1.6-2.2-3.7-2.2-6.2v-14h4.4v13.3
			c0,3.4,1.9,4.9,4.4,4.9c2.5,0,4.5-1.5,4.5-4.9v-13.3h4.4v21.9H268.3z"/>
		<path fill="#BCBBBB" d="M284.5,147.6c-3.3,0-5.4-0.8-7.7-2.9l2.8-2.8c1.4,1.3,2.6,1.9,4.7,1.9c3.7,0,5.1-2.6,5.1-5.6v-2.8
			c-1.6,1.9-3.4,2.5-5.6,2.5c-2.2,0-4-0.7-5.2-1.9c-2.1-2.1-2.5-5.2-2.5-8.9c0-3.7,0.3-6.8,2.5-8.9c1.2-1.2,3.1-1.9,5.3-1.9
			c2.3,0,4.1,0.6,5.7,2.6v-2.3h4.3v21.7C293.9,143.7,290.4,147.6,284.5,147.6z M285,120.3c-4,0-4.5,3.4-4.5,6.9
			c0,3.4,0.5,6.9,4.5,6.9c4,0,4.4-3.4,4.4-6.9C289.5,123.7,289,120.3,285,120.3z"/>
		<path fill="#BCBBBB" d="M311.5,138.5v-2.2c-1.5,1.6-3.6,2.5-5.8,2.5c-2.2,0-4.1-0.7-5.4-2c-1.7-1.6-2.2-3.7-2.2-6.2v-14h4.4v13.3
			c0,3.4,1.9,4.9,4.4,4.9s4.5-1.5,4.5-4.9v-13.3h4.4v21.9H311.5z"/>
		<path fill="#BCBBBB" d="M324.4,128.8c0,3.8,2,6.1,5.6,6.1c2.5,0,3.8-0.7,5.3-2.2l2.8,2.6c-2.2,2.2-4.4,3.4-8.2,3.4
			c-5.5,0-9.8-2.9-9.8-11.2c0-7.1,3.7-11.2,9.3-11.2c5.9,0,9.3,4.3,9.3,10.5v1.9H324.4z M333.2,112.7l-3.8-4.2l-3.8,4.2H322l5.6-6.9
			h3.7l5.6,6.9H333.2z M333.6,122.8c-0.7-1.6-2.2-2.8-4.3-2.8c-2.1,0-3.7,1.1-4.4,2.8c-0.4,1-0.5,1.6-0.6,3h9.8
			C334.2,124.4,334.1,123.8,333.6,122.8z"/>
		<path fill="#BCBBBB" d="M350.3,138.7c-3.6,0-6.6-0.6-9.2-3.1l2.9-2.9c1.8,1.8,4.1,2.3,6.3,2.3c2.7,0,4.8-0.9,4.8-3
			c0-1.5-0.8-2.4-2.9-2.6l-3.5-0.3c-4.1-0.3-6.5-2.2-6.5-6c0-4.3,3.7-6.7,8.2-6.7c3.3,0,6.1,0.7,8.1,2.5l-2.8,2.8
			c-1.4-1.2-3.3-1.6-5.4-1.6c-2.6,0-4,1.2-4,2.8c0,1.3,0.7,2.3,3,2.5l3.4,0.3c4.1,0.3,6.5,2.3,6.5,6.2
			C359.4,136.4,355.5,138.7,350.3,138.7z"/>
	</g>
	<path fill="#222426" d="M135.9,72.9l-6.8-0.6c-5.4-0.4-7.4-2.6-7.4-6.2c0-4.3,3.3-7,9.5-7c4.4,0,8.3,1,11.3,3.4l4.1-4.1
		c-3.8-3.1-9.3-4.6-15.3-4.6c-9.1,0-15.7,4.7-15.7,12.5c0,7,4.4,10.7,12.7,11.4l7,0.6c4.9,0.4,7.1,2.5,7.1,6.2c0,5-4.3,7.5-11.3,7.5
		c-5.3,0-9.9-1.4-13.2-4.9l-4.2,4.2c4.7,4.5,10.3,6.1,17.5,6.1c10.3,0,17.3-4.8,17.3-13C148.4,76.5,143.3,73.6,135.9,72.9z
		 M189.1,53.8c-6.8,0-11.1,1.3-14.9,6.1c-0.1,0.1,4.1,4.1,4.1,4.1c2.5-3.5,5.3-4.8,10.7-4.8c7.8,0,10.9,3.1,10.9,9.3v4.1h-12.8
		c-9.5,0-14.7,4.8-14.7,12.3c0,3.4,1.1,6.6,3.2,8.7c2.7,2.8,6.1,3.9,12,3.9c5.7,0,8.8-1.1,12.3-4.6v4.1h6.2V68
		C206.2,58.7,200.5,53.8,189.1,53.8z M199.9,81.8c0,3.5-0.7,6-2.2,7.4c-2.7,2.6-5.9,2.9-9.5,2.9c-6.7,0-9.8-2.3-9.8-7.3
		c0-4.9,3.1-7.5,9.5-7.5h11.9V81.8z M230.6,59.3c4.1,0,6.6,1.2,9.8,4.8c0,0,4.2-4.1,4.1-4.1c-4.4-4.7-8.1-6.2-13.9-6.2
		c-10.7,0-18.9,7.3-18.9,21.8c0,14.5,8.1,21.8,18.9,21.8c5.9,0,9.6-1.6,14-6.3l-4.2-4.1c-3.2,3.5-5.7,4.8-9.8,4.8
		c-4.2,0-7.6-1.6-9.9-4.8c-2-2.8-2.8-6.1-2.8-11.4c0-5.4,0.8-8.7,2.8-11.4C223,61,226.4,59.3,230.6,59.3z M283.9,54.2h-7.8L256.8,73
		l0-37.8h-6.2v61.6h6.2l0-15.5l7.6-7.6l14.3,23.1h7.7l-17.7-27.4L283.9,54.2z M313.2,52c-6.6,0-11,2.6-13.7,5.4c-4,4.2-5,9.2-5,17.2
		c0,8.1,1,13.1,5,17.3c2.7,2.9,7.1,5.4,13.7,5.4c6.6,0,11.1-2.6,13.8-5.4c4-4.2,5-9.2,5-17.3c0-8-1-13-5-17.2
		C324.2,54.6,319.7,52,313.2,52z M318.4,85.5c-1.3,1.3-3,2-5.2,2s-3.8-0.7-5.1-2c-2.3-2.3-2.6-6.2-2.6-10.8c0-4.6,0.3-8.4,2.6-10.7
		c1.3-1.3,2.9-2,5.1-2s3.9,0.7,5.2,2c2.3,2.3,2.6,6.1,2.6,10.7C320.9,79.3,320.7,83.2,318.4,85.5z M361.4,52.5l-8.9,27.4l-9-27.4
		h-11.7l16.3,44.3h8.7l16.3-44.3H361.4z M391.9,52c-11.5,0-19.3,8.2-19.3,22.6c0,18,10,22.7,20.5,22.7c8,0,12.3-2.5,16.8-7l-6.7-6.6
		c-2.8,2.8-5.2,4.2-10,4.2c-6.2,0-9.7-4.2-9.7-9.9h27.7v-4.9C411.2,61.1,404.2,52,391.9,52z M383.5,70.6c0.1-2,0.3-3.1,1-4.8
		c1.2-2.6,3.7-4.6,7.4-4.6c3.7,0,6.2,2,7.4,4.6c0.7,1.6,0.9,2.8,1,4.8H383.5z M427.5,56.8v-4.3h-10.8v44.3h11.1V70.2
		c0-5.6,3.7-8.2,7.1-8.2c2.7,0,4.1,0.9,5.8,2.6l8.4-8.4c-3.1-3.1-6.1-4.2-10.5-4.2C433.9,52,429.7,54.2,427.5,56.8z M452.6,47.9
		v48.9h11.1v-35h8.2v-8.4h-8.2v-4.9c0-2.6,1.3-4,3.9-4h4.3v-9.4h-6.3C456.5,35.2,452.6,41.6,452.6,47.9z M517.4,52
		c-6.6,0-11,2.6-13.7,5.4c-4,4.2-5,9.2-5,17.2c0,8.1,1,13.1,5,17.3c2.7,2.9,7.1,5.4,13.7,5.4c6.6,0,11.1-2.6,13.8-5.4
		c4-4.2,5-9.2,5-17.3c0-8-1-13-5-17.2C528.4,54.6,523.9,52,517.4,52z M522.5,85.5c-1.3,1.3-3,2-5.2,2c-2.2,0-3.8-0.7-5.1-2
		c-2.3-2.3-2.6-6.2-2.6-10.8c0-4.6,0.3-8.4,2.6-10.7c1.3-1.3,2.9-2,5.1-2c2.2,0,3.9,0.7,5.2,2c2.3,2.3,2.6,6.1,2.6,10.7
		C525.1,79.3,524.8,83.2,522.5,85.5z M588.4,52.5l-7.1,27.4l-9.1-27.4h-8.1l-9,27.4l-7.1-27.4h-11.7l13.6,44.3h9.1l9.3-27.8
		l9.3,27.8h9.1l13.5-44.3H588.4z M488.1,83.5V35.2h-11.1v49c0,6.3,3.8,12.7,12.9,12.7h6.3v-9.4h-4.3
		C489.2,87.5,488.1,86.2,488.1,83.5z M165.7,61l5.8-5.8h-11.8v-14h-6.2v44.2c0,6.3,3.6,11.4,10.9,11.4h4.4v-5.4h-3.3
		c-4,0-5.8-2.3-5.8-6.2V61H165.7z"/>
	<polygon fill="#BCBBBB" points="84.1,107.4 84.1,75.8 94.6,75.8 94.6,117.9 0,117.9 0,75.8 10.5,75.8 10.5,107.4 	"/>
	<path fill="#F48024" d="M22.1,72.9l51.5,10.8l2.2-10.3L24.3,62.6L22.1,72.9z M28.9,48.3l47.7,22.2l4.4-9.5L33.3,38.7L28.9,48.3z
		 M42.1,24.9l40.4,33.7l6.7-8.1L48.8,16.8L42.1,24.9z M68.2,0l-8.4,6.3l31.4,42.2l8.4-6.3L68.2,0z M21,96.8l52.6,0V86.3l-52.6,0
		V96.8z"/>
</g>
</svg>
