<?xml version="1.0" encoding="UTF-8"?>
<!DOCTYPE svg PUBLIC "-//W3C//DTD SVG 1.1//EN" "http://www.w3.org/Graphics/SVG/1.1/DTD/svg11.dtd">
<!-- Creator: CorelDRAW X6 -->
<svg xmlns="http://www.w3.org/2000/svg" xml:space="preserve" width="90mm" height="80mm" version="1.1" style="shape-rendering:geometricPrecision; text-rendering:geometricPrecision; image-rendering:optimizeQuality; fill-rule:evenodd; clip-rule:evenodd"
viewBox="0 0 9000 8000"
 xmlns:xlink="http://www.w3.org/1999/xlink">
 <defs>
  <style type="text/css">
   <![CDATA[
    .fil0 {fill:#00AFEF}
    .fil3 {fill:#373435}
    .fil1 {fill:#FEFEFE}
    .fil2 {fill:#FFCC29}
   ]]>
  </style>
 </defs>
 <g id="Layer_x0020_1">
  <metadata id="CorelCorpID_0Corel-Layer"/>
  <ellipse class="fil0" transform="matrix(1.08892 -0.0332701 0.0380235 1.24449 4473.41 5208.47)" rx="3679" ry="772"/>
  <ellipse class="fil1" transform="matrix(0.920777 -0.0281329 0.0310123 1.01502 4464.22 4907.69)" rx="3679" ry="772"/>
  <ellipse class="fil2" transform="matrix(0.861627 -0.0263256 0.0263256 0.861627 4461.47 4817.48)" rx="3679" ry="772"/>
  <path class="fil3" d="M1614 2812l425 -184c274,-119 465,-187 573,-203 108,-17 199,-8 274,28 76,36 135,86 178,151 43,65 110,201 199,408l332 765c85,196 133,331 142,405 10,74 1,140 -29,197 -30,57 -75,108 -136,152 -23,16 -51,34 -84,52 -404,-156 -778,-159 -1118,-27l-757 -1744zm730 127l623 1437c81,-35 125,-73 130,-114 5,-41 -25,-135 -88,-280l-368 -849c-43,-99 -74,-161 -92,-186 -18,-25 -42,-39 -70,-42 -28,-3 -74,8 -135,35zm797 -789l947 -411 189 437 -379 164 180 414 355 -154 180 416 -355 154 208 480 417 -181 189 437 -985 427 -947 -2184zm2497 -1083l658 2309 -862 374 -1275 -2042 599 -260c330,571 600,1059 810,1461 -153,-433 -283,-819 -392,-1160l-137 -423 599 -260z"/>
  <path class="fil3" d="M4043 4485l352 808c-108,6 -214,24 -317,55l-322 -739 287 -124zm867 20l-266 115 -35 -81c-17,-38 -31,-61 -42,-68 -11,-8 -25,-8 -41,-1 -17,7 -27,20 -30,38 -3,18 2,41 14,69 16,37 33,62 51,76 18,14 54,25 110,32 160,20 268,47 322,81 54,34 105,105 152,212 34,78 50,140 48,185 -2,45 -24,92 -66,139 -29,33 -63,61 -105,86 -174,-61 -343,-93 -506,-98 -12,-22 -23,-47 -35,-73l-31 -72 266 -115 58 134c18,41 33,66 46,75 13,8 29,9 48,0 19,-8 30,-22 33,-41 3,-19 -2,-43 -15,-72 -28,-65 -55,-103 -82,-115 -27,-12 -86,-26 -177,-42 -92,-16 -154,-30 -186,-41 -32,-11 -64,-32 -96,-63 -32,-31 -60,-76 -85,-134 -37,-84 -53,-150 -48,-198 4,-48 26,-93 65,-136 39,-43 92,-79 160,-108 75,-32 143,-48 206,-46 63,1 111,17 144,46 33,29 68,87 106,174l19 43zm256 -505l382 878 174 -75 96 220 -461 199 -478 -1097 287 -124zm773 -334l642 1027 -294 127 -100 -191 -103 44 69 205 -297 128 -332 -1160 415 -179zm156 771c-69,-118 -150,-265 -244,-442 62,222 111,384 146,484l98 -42zm698 -1140l478 1097 -251 109 -366 -434 217 499 -240 103 -478 -1097 240 -103 376 425 -215 -494 240 -103zm115 -50l215 -93c139,-60 235,-94 289,-102 54,-8 101,-4 138,14 38,18 68,43 90,76 22,33 55,101 101,205l167 384c43,99 67,166 72,204 5,37 0,70 -15,99 -15,29 -38,54 -69,76 -31,22 -80,48 -149,78l-362 156 -478 -1097zm369 64l314 722c41,-18 63,-37 66,-57 2,-21 -13,-68 -44,-141l-186 -426c-22,-50 -37,-81 -46,-94 -9,-12 -21,-20 -35,-21 -14,-2 -37,4 -68,18z"/>
 </g>
</svg>
